# xmcd CD database file
#
# Track frame offsets:
#	187
#	20657
#	42891
#	59823
#	84918
#	101413
#	125077
#	142700
#	163995
#	182075
#
# Disc length: 2565 seconds
#
# Revision: 0
# Processed by: cddbd v1.4PL0 Copyright (c) Steve Scherf et al.
# Submitted via: CD2WAV32(EN) R3.17
#
DISCID=860a030a
DTITLE=Hiro Tsunoda - Ballad
DYEAR=1900
DGENRE=
TTITLE0=You win again
TTITLE1=Misunderstood
TTITLE2=First of November
TTITLE3=You van have your cake
TTITLE4=Lonely days
TTITLE5=Mary jane
TTITLE6=One side kove
TTITLE7=Can't you hear the song of my heart
TTITLE8=Lullaby
TTITLE9=I love tokyo
EXTD=
EXTT0=
EXTT1=
EXTT2=
EXTT3=
EXTT4=
EXTT5=
EXTT6=
EXTT7=
EXTT8=
EXTT9=
PLAYORDER=
